<svg width="35" height="36" viewBox="0 0 35 36" fill="none" xmlns="http://www.w3.org/2000/svg">
<circle cx="17.5" cy="18.2676" r="17.5" fill="white"/>
<path fill-rule="evenodd" clip-rule="evenodd" d="M13.2895 9.82158C14.2493 9.7774 14.5553 9.76758 17 9.76758C19.4447 9.76758 19.7507 9.77821 20.7096 9.82158C21.6685 9.86494 22.3231 10.0179 22.8958 10.2397C23.4955 10.4663 24.0396 10.8206 24.4896 11.2788C24.9478 11.7279 25.3013 12.2712 25.5271 12.8718C25.7496 13.4445 25.9018 14.099 25.946 15.0563C25.9902 16.0177 26 16.3237 26 18.7676C26 21.2123 25.9894 21.5183 25.946 22.478C25.9026 23.4353 25.7496 24.0899 25.5271 24.6626C25.3013 25.2632 24.9472 25.8074 24.4896 26.2572C24.0396 26.7154 23.4955 27.0689 22.8958 27.2947C22.3231 27.5172 21.6685 27.6694 20.7113 27.7136C19.7507 27.7578 19.4447 27.7676 17 27.7676C14.5553 27.7676 14.2493 27.7569 13.2895 27.7136C12.3323 27.6702 11.6777 27.5172 11.105 27.2947C10.5044 27.0688 9.96022 26.7148 9.51036 26.2572C9.05249 25.8078 8.69817 25.2638 8.47209 24.6634C8.25036 24.0907 8.09818 23.4361 8.054 22.4789C8.00982 21.5175 8 21.2115 8 18.7676C8 16.3229 8.01064 16.0169 8.054 15.0579C8.09736 14.099 8.25036 13.4445 8.47209 12.8718C8.6985 12.2713 9.0531 11.7274 9.51118 11.2779C9.9604 10.8202 10.504 10.4658 11.1042 10.2397C11.6769 10.0179 12.3323 9.86576 13.2895 9.82158ZM20.6368 11.4416C19.6877 11.3982 19.403 11.3892 17 11.3892C14.597 11.3892 14.3123 11.3982 13.3632 11.4416C12.4853 11.4817 12.0091 11.6281 11.6916 11.7517C11.2719 11.9153 10.9716 12.1092 10.6566 12.4242C10.358 12.7147 10.1282 13.0684 9.98409 13.4592C9.86055 13.7767 9.71409 14.2529 9.674 15.1308C9.63064 16.0799 9.62164 16.3646 9.62164 18.7676C9.62164 21.1706 9.63064 21.4553 9.674 22.4044C9.71409 23.2823 9.86055 23.7585 9.98409 24.0759C10.1281 24.4662 10.358 24.8205 10.6566 25.1109C10.9471 25.4096 11.3014 25.6395 11.6916 25.7835C12.0091 25.907 12.4853 26.0535 13.3632 26.0936C14.3123 26.1369 14.5962 26.1459 17 26.1459C19.4038 26.1459 19.6877 26.1369 20.6368 26.0936C21.5147 26.0535 21.9909 25.907 22.3084 25.7835C22.7281 25.6199 23.0284 25.4259 23.3434 25.1109C23.642 24.8205 23.8719 24.4662 24.0159 24.0759C24.1395 23.7585 24.2859 23.2823 24.326 22.4044C24.3694 21.4553 24.3784 21.1706 24.3784 18.7676C24.3784 16.3646 24.3694 16.0799 24.326 15.1308C24.2859 14.2529 24.1395 13.7767 24.0159 13.4592C23.8523 13.0395 23.6584 12.7392 23.3434 12.4242C23.0528 12.1256 22.6992 11.8958 22.3084 11.7517C21.9909 11.6281 21.5147 11.4817 20.6368 11.4416ZM15.8505 21.542C16.4924 21.8093 17.2073 21.8453 17.8729 21.6441C18.5386 21.4428 19.1137 21.0167 19.5 20.4385C19.8864 19.8603 20.06 19.1659 19.9913 18.4739C19.9226 17.7819 19.6157 17.1353 19.1232 16.6444C18.8092 16.3306 18.4295 16.0903 18.0115 15.9409C17.5936 15.7914 17.1476 15.7365 16.7059 15.7801C16.2641 15.8237 15.8375 15.9646 15.4567 16.1929C15.076 16.4211 14.7506 16.7309 14.504 17.1C14.2573 17.4691 14.0956 17.8883 14.0304 18.3274C13.9652 18.7665 13.9982 19.2145 14.127 19.6394C14.2558 20.0642 14.4771 20.4552 14.7751 20.7842C15.0731 21.1132 15.4404 21.372 15.8505 21.542ZM13.7289 15.4965C14.1585 15.0669 14.6684 14.7262 15.2297 14.4937C15.791 14.2612 16.3925 14.1416 17 14.1416C17.6075 14.1416 18.209 14.2612 18.7703 14.4937C19.3316 14.7262 19.8415 15.0669 20.2711 15.4965C20.7007 15.9261 21.0414 16.436 21.2739 16.9973C21.5064 17.5585 21.626 18.1601 21.626 18.7676C21.626 19.3751 21.5064 19.9766 21.2739 20.5379C21.0414 21.0991 20.7007 21.6091 20.2711 22.0387C19.4035 22.9062 18.2269 23.3936 17 23.3936C15.7731 23.3936 14.5965 22.9062 13.7289 22.0387C12.8614 21.1711 12.374 19.9945 12.374 18.7676C12.374 17.5407 12.8614 16.364 13.7289 15.4965ZM22.652 14.8305C22.7584 14.7301 22.8437 14.6093 22.9026 14.4754C22.9616 14.3414 22.993 14.197 22.9952 14.0507C22.9973 13.9044 22.97 13.7591 22.915 13.6235C22.86 13.4879 22.7784 13.3647 22.6749 13.2612C22.5714 13.1578 22.4482 13.0761 22.3126 13.0211C22.177 12.9661 22.0317 12.9388 21.8854 12.941C21.7391 12.9431 21.5947 12.9746 21.4607 13.0335C21.3268 13.0925 21.2061 13.1777 21.1056 13.2841C20.9103 13.4911 20.8034 13.7661 20.8076 14.0507C20.8117 14.3353 20.9266 14.607 21.1279 14.8083C21.3291 15.0095 21.6008 15.1244 21.8854 15.1286C22.17 15.1327 22.445 15.0258 22.652 14.8305Z" fill="#004750"/>
</svg>
