<svg width="35" height="36" viewBox="0 0 35 36" fill="none" xmlns="http://www.w3.org/2000/svg">
<circle cx="17.5" cy="18.2676" r="17.5" fill="white"/>
<path d="M13.4051 25.1057V15.4318H10.1897V25.1057H13.4051ZM11.7978 14.1102C12.9191 14.1102 13.617 13.3674 13.617 12.439C13.5961 11.4898 12.9191 10.7676 11.8191 10.7676C10.7192 10.7676 10 11.4898 10 12.439C10 13.3674 10.6978 14.1102 11.7768 14.1102H11.7978ZM15.1848 25.1057H18.4002V19.7033C18.4002 19.4142 18.4211 19.1254 18.506 18.9187C18.7385 18.341 19.2676 17.7427 20.1558 17.7427C21.3193 17.7427 21.7848 18.6298 21.7848 19.9303V25.1056H25V19.5587C25 16.5873 23.4137 15.2047 21.2981 15.2047C19.5636 15.2047 18.802 16.1743 18.3789 16.8346H18.4003V15.4316H15.1849C15.2271 16.3393 15.1848 25.1057 15.1848 25.1057Z" fill="#004750"/>
</svg>
